<svg width="32" height="32" viewBox="0 0 32 32" fill="none" xmlns="http://www.w3.org/2000/svg">
<path d="M16 32C24.8366 32 32 24.8366 32 16C32 7.16344 24.8366 0 16 0C7.16344 0 0 7.16344 0 16C0 24.8366 7.16344 32 16 32Z" fill="#141616"/>
<path d="M11.5986 13.7076C11.3627 13.5212 11.3225 13.1789 11.5089 12.9429L12.4319 11.7748C12.6183 11.5388 12.9607 11.4987 13.1966 11.6851C13.4325 11.8715 13.4727 12.2139 13.2863 12.4498L12.3633 13.618C12.1769 13.8539 11.8345 13.894 11.5986 13.7076Z" fill="#4AFEBF"/>
<path d="M17.7927 15.7456C17.7927 16.7357 16.9901 17.5383 16 17.5383C15.0099 17.5383 14.2073 16.7357 14.2073 15.7456C14.2073 14.7555 15.0099 13.9529 16 13.9529C16.9901 13.9529 17.7927 14.7555 17.7927 15.7456Z" fill="#51EEDA"/>
<path fill-rule="evenodd" clip-rule="evenodd" d="M17.1884 23.078C16.5656 23.8109 15.4344 23.8109 14.8116 23.078L9.65532 17.0098C9.16052 16.4275 9.16052 15.5725 9.65532 14.9902L10.1712 14.3831C10.45 14.0549 10.9421 14.015 11.2703 14.2938C11.5985 14.5727 11.6384 15.0648 11.3596 15.3929L10.8437 16L16 22.0682L17.4943 20.3097C17.7731 19.9815 18.2652 19.9415 18.5934 20.2204C18.9216 20.4992 18.9615 20.9913 18.6827 21.3195L17.1884 23.078ZM20.412 18.0801C20.0838 17.8013 20.0438 17.3092 20.3227 16.981L21.1563 16L16 9.93183L14.914 11.2099C14.6352 11.538 14.1431 11.578 13.8149 11.2992C13.4867 11.0203 13.4468 10.5282 13.7256 10.2L14.8116 8.92201C15.4344 8.18909 16.5656 8.18909 17.1884 8.92201L22.3447 14.9902C22.8395 15.5725 22.8395 16.4275 22.3447 17.0098L21.5111 17.9908C21.2322 18.319 20.7401 18.359 20.412 18.0801Z" fill="url(#paint0_linear)"/>
<path fill-rule="evenodd" clip-rule="evenodd" d="M16 6.55951C10.7862 6.55951 6.55951 10.7862 6.55951 16C6.55951 21.2138 10.7862 25.4405 16 25.4405C16.4307 25.4405 16.7798 25.7896 16.7798 26.2203C16.7798 26.6509 16.4307 27 16 27C9.92487 27 5 22.0751 5 16C5 9.92487 9.92487 5 16 5C16.4307 5 16.7798 5.34911 16.7798 5.77976C16.7798 6.2104 16.4307 6.55951 16 6.55951Z" fill="url(#paint1_linear)"/>
<path fill-rule="evenodd" clip-rule="evenodd" d="M22.6395 23.8089C22.3364 23.503 22.3387 23.0093 22.6446 22.7061C24.372 20.9945 25.4405 18.6228 25.4405 16C25.4405 13.3773 24.372 11.0055 22.6446 9.29388C22.3387 8.99077 22.3364 8.49706 22.6395 8.19115C22.9427 7.88525 23.4364 7.88299 23.7423 8.18611C25.7531 10.1786 27 12.9444 27 16C27 19.0556 25.7531 21.8214 23.7423 23.8139C23.4364 24.117 22.9427 24.1148 22.6395 23.8089Z" fill="url(#paint2_linear)"/>
<path d="M20.6396 25.4437C20.6396 25.9067 20.2643 26.2819 19.8014 26.2819C19.3384 26.2819 18.9631 25.9067 18.9631 25.4437C18.9631 24.9808 19.3384 24.6055 19.8014 24.6055C20.2643 24.6055 20.6396 24.9808 20.6396 25.4437Z" fill="#4AFEBF"/>
<defs>
<linearGradient id="paint0_linear" x1="16" y1="23.6277" x2="16" y2="8.37232" gradientUnits="userSpaceOnUse">
<stop stop-color="#4AFEBF"/>
<stop offset="1" stop-color="#51EEDA"/>
</linearGradient>
<linearGradient id="paint1_linear" x1="10.8899" y1="5" x2="10.8899" y2="27" gradientUnits="userSpaceOnUse">
<stop stop-color="#4AFEBF"/>
<stop offset="1" stop-color="#51EEDA"/>
</linearGradient>
<linearGradient id="paint2_linear" x1="24.7068" y1="24.0398" x2="24.7068" y2="7.96024" gradientUnits="userSpaceOnUse">
<stop stop-color="#4AFEBF"/>
<stop offset="1" stop-color="#51EEDA"/>
</linearGradient>
</defs>
</svg>
